<svg width="83" height="15" viewBox="0 0 83 15" fill="none" xmlns="http://www.w3.org/2000/svg">
<path d="M9.27106 9.272C9.3884 9.272 9.4924 9.31733 9.58306 9.408L10.4311 10.328C9.96173 10.9093 9.38306 11.3547 8.69506 11.664C8.0124 11.9733 7.19106 12.128 6.23106 12.128C5.3724 12.128 4.59906 11.9813 3.91106 11.688C3.2284 11.3947 2.6444 10.9867 2.15906 10.464C1.67373 9.94133 1.3004 9.31733 1.03906 8.592C0.783063 7.86667 0.655063 7.07467 0.655063 6.216C0.655063 5.34667 0.793729 4.552 1.07106 3.832C1.3484 3.10667 1.73773 2.48267 2.23906 1.96C2.74573 1.43733 3.3484 1.032 4.04706 0.743999C4.74573 0.450666 5.51906 0.304 6.36706 0.304C7.20973 0.304 7.9564 0.442666 8.60706 0.719999C9.26306 0.997333 9.8204 1.36 10.2791 1.808L9.55906 2.808C9.5164 2.872 9.4604 2.928 9.39106 2.976C9.32706 3.024 9.2364 3.048 9.11906 3.048C9.03906 3.048 8.9564 3.02667 8.87106 2.984C8.78573 2.936 8.6924 2.88 8.59106 2.816C8.48973 2.74667 8.3724 2.672 8.23906 2.592C8.10573 2.512 7.95106 2.44 7.77506 2.376C7.59906 2.30667 7.39373 2.25067 7.15906 2.208C6.92973 2.16 6.66306 2.136 6.35906 2.136C5.84173 2.136 5.36706 2.22933 4.93506 2.416C4.5084 2.59733 4.1404 2.864 3.83106 3.216C3.52173 3.56267 3.28173 3.98933 3.11106 4.496C2.9404 4.99733 2.85506 5.57067 2.85506 6.216C2.85506 6.86667 2.94573 7.44533 3.12706 7.952C3.31373 8.45867 3.5644 8.88533 3.87906 9.232C4.19373 9.57867 4.5644 9.84533 4.99106 10.032C5.41773 10.2133 5.8764 10.304 6.36706 10.304C6.6604 10.304 6.9244 10.288 7.15906 10.256C7.39906 10.224 7.61773 10.1733 7.81506 10.104C8.01773 10.0347 8.20706 9.94667 8.38306 9.84C8.5644 9.728 8.74306 9.592 8.91906 9.432C8.9724 9.384 9.0284 9.34667 9.08706 9.32C9.14573 9.288 9.20706 9.272 9.27106 9.272ZM15.0533 3.664C15.6613 3.664 16.2133 3.76267 16.7093 3.96C17.2106 4.15733 17.6373 4.43733 17.9893 4.8C18.3466 5.16267 18.6213 5.60533 18.8133 6.128C19.0053 6.65067 19.1013 7.23467 19.1013 7.88C19.1013 8.53067 19.0053 9.11733 18.8133 9.64C18.6213 10.1627 18.3466 10.608 17.9893 10.976C17.6373 11.344 17.2106 11.6267 16.7093 11.824C16.2133 12.0213 15.6613 12.12 15.0533 12.12C14.44 12.12 13.8826 12.0213 13.3813 11.824C12.88 11.6267 12.4506 11.344 12.0933 10.976C11.7413 10.608 11.4666 10.1627 11.2693 9.64C11.0773 9.11733 10.9813 8.53067 10.9813 7.88C10.9813 7.23467 11.0773 6.65067 11.2693 6.128C11.4666 5.60533 11.7413 5.16267 12.0933 4.8C12.4506 4.43733 12.88 4.15733 13.3813 3.96C13.8826 3.76267 14.44 3.664 15.0533 3.664ZM15.0533 10.6C15.736 10.6 16.24 10.3707 16.5653 9.912C16.896 9.45333 17.0613 8.78133 17.0613 7.896C17.0613 7.01067 16.896 6.336 16.5653 5.872C16.24 5.408 15.736 5.176 15.0533 5.176C14.36 5.176 13.8453 5.41067 13.5093 5.88C13.1786 6.344 13.0133 7.016 13.0133 7.896C13.0133 8.776 13.1786 9.448 13.5093 9.912C13.8453 10.3707 14.36 10.6 15.0533 10.6ZM20.6088 12V3.792H21.8168C22.0728 3.792 22.2408 3.912 22.3208 4.152L22.4488 4.76C22.5928 4.6 22.7421 4.45333 22.8968 4.32C23.0568 4.18667 23.2248 4.072 23.4008 3.976C23.5821 3.88 23.7741 3.80533 23.9768 3.752C24.1848 3.69333 24.4115 3.664 24.6568 3.664C25.1741 3.664 25.5981 3.80533 25.9288 4.088C26.2648 4.36533 26.5155 4.736 26.6808 5.2C26.8088 4.928 26.9688 4.696 27.1608 4.504C27.3528 4.30667 27.5635 4.14667 27.7928 4.024C28.0221 3.90133 28.2648 3.81067 28.5208 3.752C28.7821 3.69333 29.0435 3.664 29.3048 3.664C29.7581 3.664 30.1608 3.73333 30.5128 3.872C30.8648 4.01067 31.1608 4.21333 31.4008 4.48C31.6408 4.74667 31.8221 5.072 31.9448 5.456C32.0728 5.84 32.1368 6.28 32.1368 6.776V12H30.1608V6.776C30.1608 6.25333 30.0461 5.86133 29.8168 5.6C29.5875 5.33333 29.2515 5.2 28.8088 5.2C28.6061 5.2 28.4168 5.23467 28.2408 5.304C28.0701 5.37333 27.9181 5.47467 27.7848 5.608C27.6568 5.736 27.5555 5.89867 27.4808 6.096C27.4061 6.29333 27.3688 6.52 27.3688 6.776V12H25.3848V6.776C25.3848 6.22667 25.2728 5.82667 25.0488 5.576C24.8301 5.32533 24.5075 5.2 24.0808 5.2C23.7928 5.2 23.5235 5.272 23.2728 5.416C23.0275 5.55467 22.7981 5.74667 22.5848 5.992V12H20.6088ZM34.0151 12V3.792H35.2231C35.4791 3.792 35.6471 3.912 35.7271 4.152L35.8551 4.76C35.9991 4.6 36.1484 4.45333 36.3031 4.32C36.4631 4.18667 36.6311 4.072 36.8071 3.976C36.9884 3.88 37.1804 3.80533 37.3831 3.752C37.5911 3.69333 37.8177 3.664 38.0631 3.664C38.5804 3.664 39.0044 3.80533 39.3351 4.088C39.6711 4.36533 39.9217 4.736 40.0871 5.2C40.2151 4.928 40.3751 4.696 40.5671 4.504C40.7591 4.30667 40.9697 4.14667 41.1991 4.024C41.4284 3.90133 41.6711 3.81067 41.9271 3.752C42.1884 3.69333 42.4497 3.664 42.7111 3.664C43.1644 3.664 43.5671 3.73333 43.9191 3.872C44.2711 4.01067 44.5671 4.21333 44.8071 4.48C45.0471 4.74667 45.2284 5.072 45.3511 5.456C45.4791 5.84 45.5431 6.28 45.5431 6.776V12H43.5671V6.776C43.5671 6.25333 43.4524 5.86133 43.2231 5.6C42.9937 5.33333 42.6577 5.2 42.2151 5.2C42.0124 5.2 41.8231 5.23467 41.6471 5.304C41.4764 5.37333 41.3244 5.47467 41.1911 5.608C41.0631 5.736 40.9617 5.89867 40.8871 6.096C40.8124 6.29333 40.7751 6.52 40.7751 6.776V12H38.7911V6.776C38.7911 6.22667 38.6791 5.82667 38.4551 5.576C38.2364 5.32533 37.9137 5.2 37.4871 5.2C37.1991 5.2 36.9297 5.272 36.6791 5.416C36.4337 5.55467 36.2044 5.74667 35.9911 5.992V12H34.0151ZM54.4933 3.792V12H53.2853C53.024 12 52.8586 11.88 52.7893 11.64L52.6533 10.984C52.3173 11.3253 51.9466 11.6027 51.5413 11.816C51.136 12.024 50.6586 12.128 50.1093 12.128C49.6613 12.128 49.264 12.0533 48.9173 11.904C48.576 11.7493 48.288 11.5333 48.0533 11.256C47.8186 10.9787 47.64 10.6507 47.5173 10.272C47.4 9.888 47.3413 9.46667 47.3413 9.008V3.792H49.3173V9.008C49.3173 9.50933 49.432 9.89867 49.6613 10.176C49.896 10.448 50.2453 10.584 50.7093 10.584C51.0506 10.584 51.3706 10.5093 51.6693 10.36C51.968 10.2053 52.2506 9.99467 52.5173 9.728V3.792H54.4933ZM58.3006 4.8C58.4659 4.63467 58.6392 4.48267 58.8206 4.344C59.0072 4.2 59.2019 4.08 59.4046 3.984C59.6126 3.88267 59.8339 3.80533 60.0686 3.752C60.3032 3.69333 60.5592 3.664 60.8366 3.664C61.2846 3.664 61.6819 3.74133 62.0286 3.896C62.3752 4.04533 62.6632 4.25867 62.8926 4.536C63.1272 4.808 63.3032 5.136 63.4206 5.52C63.5432 5.89867 63.6046 6.31733 63.6046 6.776V12H61.6286V6.776C61.6286 6.27467 61.5139 5.888 61.2846 5.616C61.0552 5.33867 60.7059 5.2 60.2366 5.2C59.8952 5.2 59.5752 5.27733 59.2766 5.432C58.9779 5.58667 58.6952 5.79733 58.4286 6.064V12H56.4526V3.792H57.6606C57.9166 3.792 58.0846 3.912 58.1646 4.152L58.3006 4.8ZM67.5318 3.792V12H65.5478V3.792H67.5318ZM67.8038 1.4C67.8038 1.57067 67.7691 1.73067 67.6998 1.88C67.6305 2.02933 67.5371 2.16 67.4198 2.272C67.3078 2.384 67.1745 2.47467 67.0198 2.544C66.8651 2.608 66.6998 2.64 66.5238 2.64C66.3531 2.64 66.1905 2.608 66.0358 2.544C65.8865 2.47467 65.7558 2.384 65.6438 2.272C65.5318 2.16 65.4411 2.02933 65.3718 1.88C65.3078 1.73067 65.2758 1.57067 65.2758 1.4C65.2758 1.224 65.3078 1.05867 65.3718 0.903999C65.4411 0.749333 65.5318 0.616 65.6438 0.504C65.7558 0.392 65.8865 0.304 66.0358 0.24C66.1905 0.170666 66.3531 0.136 66.5238 0.136C66.6998 0.136 66.8651 0.170666 67.0198 0.24C67.1745 0.304 67.3078 0.392 67.4198 0.504C67.5371 0.616 67.6305 0.749333 67.6998 0.903999C67.7691 1.05867 67.8038 1.224 67.8038 1.4ZM72.2823 12.128C71.5676 12.128 71.0183 11.928 70.6343 11.528C70.2556 11.1227 70.0663 10.5653 70.0663 9.856V5.272H69.2263C69.1196 5.272 69.029 5.23733 68.9543 5.168C68.8796 5.09867 68.8423 4.99467 68.8423 4.856V4.072L70.1623 3.856L70.5783 1.616C70.605 1.50933 70.6556 1.42667 70.7303 1.368C70.805 1.30933 70.901 1.28 71.0183 1.28H72.0423V3.864H74.2343V5.272H72.0423V9.72C72.0423 9.976 72.1036 10.176 72.2263 10.32C72.3543 10.464 72.5276 10.536 72.7463 10.536C72.869 10.536 72.9703 10.5227 73.0503 10.496C73.1356 10.464 73.2076 10.432 73.2663 10.4C73.3303 10.368 73.3863 10.3387 73.4343 10.312C73.4823 10.28 73.5303 10.264 73.5783 10.264C73.637 10.264 73.685 10.28 73.7223 10.312C73.7596 10.3387 73.7996 10.3813 73.8423 10.44L74.4343 11.4C74.1463 11.64 73.8156 11.8213 73.4423 11.944C73.069 12.0667 72.6823 12.128 72.2823 12.128ZM82.9554 3.792L78.4834 14.256C78.4248 14.3947 78.3474 14.4987 78.2514 14.568C78.1608 14.6427 78.0194 14.68 77.8274 14.68H76.3554L77.8914 11.384L74.5714 3.792H76.3074C76.4621 3.792 76.5821 3.82933 76.6674 3.904C76.7581 3.97867 76.8248 4.064 76.8674 4.16L78.6114 8.416C78.6701 8.56 78.7181 8.704 78.7554 8.848C78.7981 8.992 78.8381 9.13867 78.8754 9.288C78.9234 9.13867 78.9714 8.992 79.0194 8.848C79.0674 8.69867 79.1208 8.552 79.1794 8.408L80.8274 4.16C80.8701 4.05333 80.9394 3.96533 81.0354 3.896C81.1368 3.82667 81.2488 3.792 81.3714 3.792H82.9554Z" fill="#9A9CA5"/>
</svg>
